<svg width="125" height="90" viewBox="0 0 125 90" fill="none" xmlns="http://www.w3.org/2000/svg">
<path d="M52.9141 1.75659L35.9759 13.4655L37.9277 33.37L56.8176 41.5657L73.7558 29.8568L71.8041 9.95226L52.9141 1.75659Z" fill="#EB5757"/>
<path d="M71.3351 10.2936L73.2294 29.6121L56.7617 40.9952L38.3965 33.0277L36.5022 13.7092L52.9699 2.32612L71.3351 10.2936Z" stroke="url(#paint0_linear_1156_672)" stroke-opacity="0.5" stroke-linejoin="bevel" style="mix-blend-mode:hard-light"/>
<g style="mix-blend-mode:overlay">
<path d="M54.8658 21.6611L71.804 9.95227L73.7558 29.8568L56.8176 41.5657L54.8658 21.6611Z" fill="#8C8C8C"/>
<path d="M73.4926 29.7344L57.0249 41.1175L55.1289 21.7825L71.5967 10.3994L73.4926 29.7344Z" stroke="white" stroke-opacity="0.5" stroke-width="0.5" stroke-linejoin="bevel"/>
</g>
<g style="mix-blend-mode:overlay">
<path d="M54.8658 21.6611L35.9759 13.4655L37.9276 33.37L56.8176 41.5657L54.8658 21.6611Z" fill="#595959"/>
<path d="M38.1621 33.1988L56.5273 41.1663L54.6313 21.8313L36.2661 13.8638L38.1621 33.1988Z" stroke="white" stroke-opacity="0.5" stroke-width="0.5" stroke-linejoin="bevel"/>
</g>
<g style="mix-blend-mode:overlay">
<path d="M71.8041 9.95226L54.8659 21.6611L35.9759 13.4655L52.9141 1.75659L71.8041 9.95226Z" fill="#D2D2D2"/>
<path d="M71.2909 10.0026L54.8379 21.3764L36.4881 13.4152L52.9419 2.04039L71.2909 10.0026Z" stroke="white" stroke-opacity="0.5" stroke-width="0.5" stroke-linejoin="bevel"/>
</g>
<path d="M74.9141 16.7566L57.9759 28.4655L59.9277 48.37L78.8176 56.5657L95.7558 44.8568L93.8041 24.9523L74.9141 16.7566Z" fill="#EB5757"/>
<path d="M93.3351 25.2936L95.2294 44.6121L78.7617 55.9952L60.3965 48.0277L58.5022 28.7092L74.9699 17.3261L93.3351 25.2936Z" stroke="url(#paint1_linear_1156_672)" stroke-opacity="0.5" stroke-linejoin="bevel" style="mix-blend-mode:hard-light"/>
<g style="mix-blend-mode:overlay">
<path d="M76.8658 36.6611L93.804 24.9523L95.7558 44.8568L78.8176 56.5657L76.8658 36.6611Z" fill="#8C8C8C"/>
<path d="M95.4926 44.7344L79.0249 56.1175L77.1289 36.7825L93.5967 25.3994L95.4926 44.7344Z" stroke="white" stroke-opacity="0.5" stroke-width="0.5" stroke-linejoin="bevel"/>
</g>
<g style="mix-blend-mode:overlay">
<path d="M76.8658 36.6611L57.9759 28.4655L59.9276 48.37L78.8176 56.5657L76.8658 36.6611Z" fill="#595959"/>
<path d="M60.1621 48.1988L78.5273 56.1663L76.6313 36.8313L58.2661 28.8638L60.1621 48.1988Z" stroke="white" stroke-opacity="0.5" stroke-width="0.5" stroke-linejoin="bevel"/>
</g>
<g style="mix-blend-mode:overlay">
<path d="M93.8041 24.9523L76.8659 36.6611L57.9759 28.4655L74.9141 16.7566L93.8041 24.9523Z" fill="#D2D2D2"/>
<path d="M93.2909 25.0026L76.8379 36.3764L58.4881 28.4152L74.9419 17.0404L93.2909 25.0026Z" stroke="white" stroke-opacity="0.5" stroke-width="0.5" stroke-linejoin="bevel"/>
</g>
<path d="M88.9141 17.7566L71.9759 29.4655L73.9277 49.37L92.8176 57.5657L109.756 45.8568L107.804 25.9523L88.9141 17.7566Z" fill="#F2C94C"/>
<path d="M107.335 26.2936L109.229 45.6121L92.7617 56.9952L74.3965 49.0277L72.5022 29.7092L88.9699 18.3261L107.335 26.2936Z" stroke="url(#paint2_linear_1156_672)" stroke-opacity="0.5" stroke-linejoin="bevel" style="mix-blend-mode:hard-light"/>
<g style="mix-blend-mode:overlay">
<path d="M90.8658 37.6611L107.804 25.9523L109.756 45.8568L92.8176 57.5657L90.8658 37.6611Z" fill="#8C8C8C"/>
<path d="M109.493 45.7344L93.0249 57.1175L91.1289 37.7825L107.597 26.3994L109.493 45.7344Z" stroke="white" stroke-opacity="0.5" stroke-width="0.5" stroke-linejoin="bevel"/>
</g>
<g style="mix-blend-mode:overlay">
<path d="M90.8658 37.6611L71.9759 29.4655L73.9276 49.37L92.8176 57.5657L90.8658 37.6611Z" fill="#595959"/>
<path d="M74.1621 49.1988L92.5273 57.1663L90.6313 37.8313L72.2661 29.8638L74.1621 49.1988Z" stroke="white" stroke-opacity="0.5" stroke-width="0.5" stroke-linejoin="bevel"/>
</g>
<g style="mix-blend-mode:overlay">
<path d="M107.804 25.9523L90.8659 37.6611L71.9759 29.4655L88.9141 17.7566L107.804 25.9523Z" fill="#D2D2D2"/>
<path d="M107.291 26.0026L90.8379 37.3764L72.4881 29.4152L88.9419 18.0404L107.291 26.0026Z" stroke="white" stroke-opacity="0.5" stroke-width="0.5" stroke-linejoin="bevel"/>
</g>
<path d="M33.9141 17.7566L16.9759 29.4655L18.9277 49.37L37.8176 57.5657L54.7558 45.8568L52.8041 25.9523L33.9141 17.7566Z" fill="#F2C94C"/>
<path d="M52.3351 26.2936L54.2294 45.6121L37.7617 56.9952L19.3965 49.0277L17.5022 29.7092L33.9699 18.3261L52.3351 26.2936Z" stroke="url(#paint3_linear_1156_672)" stroke-opacity="0.5" stroke-linejoin="bevel" style="mix-blend-mode:hard-light"/>
<g style="mix-blend-mode:overlay">
<path d="M35.8658 37.6611L52.804 25.9523L54.7558 45.8568L37.8176 57.5657L35.8658 37.6611Z" fill="#8C8C8C"/>
<path d="M54.4926 45.7344L38.0249 57.1175L36.1289 37.7825L52.5967 26.3994L54.4926 45.7344Z" stroke="white" stroke-opacity="0.5" stroke-width="0.5" stroke-linejoin="bevel"/>
</g>
<g style="mix-blend-mode:overlay">
<path d="M35.8658 37.6611L16.9759 29.4655L18.9276 49.37L37.8176 57.5657L35.8658 37.6611Z" fill="#595959"/>
<path d="M19.1621 49.1988L37.5273 57.1663L35.6313 37.8313L17.2661 29.8638L19.1621 49.1988Z" stroke="white" stroke-opacity="0.5" stroke-width="0.5" stroke-linejoin="bevel"/>
</g>
<g style="mix-blend-mode:overlay">
<path d="M52.8041 25.9523L35.8659 37.6611L16.9759 29.4655L33.9141 17.7566L52.8041 25.9523Z" fill="#D2D2D2"/>
<path d="M52.2909 26.0026L35.8379 37.3764L17.4881 29.4152L33.9419 18.0404L52.2909 26.0026Z" stroke="white" stroke-opacity="0.5" stroke-width="0.5" stroke-linejoin="bevel"/>
</g>
<path d="M52.9141 33.7566L35.9759 45.4655L37.9277 65.37L56.8176 73.5657L73.7558 61.8568L71.8041 41.9523L52.9141 33.7566Z" fill="#219653"/>
<path d="M71.3351 42.2936L73.2294 61.6121L56.7617 72.9952L38.3965 65.0277L36.5022 45.7092L52.9699 34.3261L71.3351 42.2936Z" stroke="url(#paint4_linear_1156_672)" stroke-opacity="0.5" stroke-linejoin="bevel" style="mix-blend-mode:hard-light"/>
<g style="mix-blend-mode:overlay">
<path d="M54.8658 53.6611L71.804 41.9523L73.7558 61.8568L56.8176 73.5657L54.8658 53.6611Z" fill="#8C8C8C"/>
<path d="M73.4926 61.7344L57.0249 73.1175L55.1289 53.7825L71.5967 42.3994L73.4926 61.7344Z" stroke="white" stroke-opacity="0.5" stroke-width="0.5" stroke-linejoin="bevel"/>
</g>
<g style="mix-blend-mode:overlay">
<path d="M54.8658 53.6611L35.9759 45.4655L37.9276 65.37L56.8176 73.5657L54.8658 53.6611Z" fill="#595959"/>
<path d="M38.1621 65.1988L56.5273 73.1663L54.6313 53.8313L36.2661 45.8638L38.1621 65.1988Z" stroke="white" stroke-opacity="0.5" stroke-width="0.5" stroke-linejoin="bevel"/>
</g>
<g style="mix-blend-mode:overlay">
<path d="M71.8041 41.9523L54.8659 53.6611L35.9759 45.4655L52.9141 33.7566L71.8041 41.9523Z" fill="#D2D2D2"/>
<path d="M71.2909 42.0026L54.8379 53.3764L36.4881 45.4152L52.9419 34.0404L71.2909 42.0026Z" stroke="white" stroke-opacity="0.5" stroke-width="0.5" stroke-linejoin="bevel"/>
</g>
<path d="M70.752 34.666L53.8138 46.3748L55.7656 66.2794L74.6556 74.4751L91.5938 62.7662L89.642 42.8617L70.752 34.666Z" fill="#219653"/>
<path d="M89.1731 43.203L91.0674 62.5215L74.5996 73.9045L56.2344 65.9371L54.3401 46.6186L70.8079 35.2355L89.1731 43.203Z" stroke="url(#paint5_linear_1156_672)" stroke-opacity="0.5" stroke-linejoin="bevel" style="mix-blend-mode:hard-light"/>
<g style="mix-blend-mode:overlay">
<path d="M72.7038 54.5705L89.642 42.8617L91.5938 62.7662L74.6556 74.4751L72.7038 54.5705Z" fill="#8C8C8C"/>
<path d="M91.3306 62.6438L74.8628 74.0269L72.9669 54.6919L89.4346 43.3088L91.3306 62.6438Z" stroke="white" stroke-opacity="0.5" stroke-width="0.5" stroke-linejoin="bevel"/>
</g>
<g style="mix-blend-mode:overlay">
<path d="M72.7038 54.5705L53.8138 46.3748L55.7656 66.2794L74.6556 74.4751L72.7038 54.5705Z" fill="#595959"/>
<path d="M56 66.1082L74.3652 74.0757L72.4693 54.7407L54.1041 46.7732L56 66.1082Z" stroke="white" stroke-opacity="0.5" stroke-width="0.5" stroke-linejoin="bevel"/>
</g>
<g style="mix-blend-mode:overlay">
<path d="M89.642 42.8617L72.7038 54.5705L53.8138 46.3748L70.752 34.666L89.642 42.8617Z" fill="#D2D2D2"/>
<path d="M89.1288 42.912L72.6759 54.2858L54.326 46.3246L70.7799 34.9498L89.1288 42.912Z" stroke="white" stroke-opacity="0.5" stroke-width="0.5" stroke-linejoin="bevel"/>
</g>
<path d="M102.914 22.7566L85.9759 34.4655L87.9277 54.37L106.818 62.5657L123.756 50.8568L121.804 30.9523L102.914 22.7566Z" fill="#219653"/>
<path d="M121.335 31.2936L123.229 50.6121L106.762 61.9952L88.3965 54.0277L86.5022 34.7092L102.97 23.3261L121.335 31.2936Z" stroke="url(#paint6_linear_1156_672)" stroke-opacity="0.5" stroke-linejoin="bevel" style="mix-blend-mode:hard-light"/>
<g style="mix-blend-mode:overlay">
<path d="M104.866 42.6611L121.804 30.9523L123.756 50.8568L106.818 62.5657L104.866 42.6611Z" fill="#8C8C8C"/>
<path d="M123.493 50.7344L107.025 62.1175L105.129 42.7825L121.597 31.3994L123.493 50.7344Z" stroke="white" stroke-opacity="0.5" stroke-width="0.5" stroke-linejoin="bevel"/>
</g>
<g style="mix-blend-mode:overlay">
<path d="M104.866 42.6611L85.9759 34.4655L87.9276 54.37L106.818 62.5657L104.866 42.6611Z" fill="#595959"/>
<path d="M88.1621 54.1988L106.527 62.1663L104.631 42.8313L86.2661 34.8638L88.1621 54.1988Z" stroke="white" stroke-opacity="0.5" stroke-width="0.5" stroke-linejoin="bevel"/>
</g>
<g style="mix-blend-mode:overlay">
<path d="M121.804 30.9523L104.866 42.6611L85.9759 34.4655L102.914 22.7566L121.804 30.9523Z" fill="#D2D2D2"/>
<path d="M121.291 31.0026L104.838 42.3764L86.4881 34.4152L102.942 23.0404L121.291 31.0026Z" stroke="white" stroke-opacity="0.5" stroke-width="0.5" stroke-linejoin="bevel"/>
</g>
<path d="M88.9141 47.7566L71.9759 59.4655L73.9277 79.37L92.8176 87.5657L109.756 75.8568L107.804 55.9523L88.9141 47.7566Z" fill="#219653"/>
<path d="M107.335 56.2936L109.229 75.6121L92.7617 86.9952L74.3965 79.0277L72.5022 59.7092L88.9699 48.3261L107.335 56.2936Z" stroke="url(#paint7_linear_1156_672)" stroke-opacity="0.5" stroke-linejoin="bevel" style="mix-blend-mode:hard-light"/>
<g style="mix-blend-mode:overlay">
<path d="M90.8658 67.6611L107.804 55.9523L109.756 75.8568L92.8176 87.5657L90.8658 67.6611Z" fill="#8C8C8C"/>
<path d="M109.493 75.7344L93.0249 87.1175L91.1289 67.7825L107.597 56.3994L109.493 75.7344Z" stroke="white" stroke-opacity="0.5" stroke-width="0.5" stroke-linejoin="bevel"/>
</g>
<g style="mix-blend-mode:overlay">
<path d="M90.8658 67.6611L71.9759 59.4655L73.9276 79.37L92.8176 87.5657L90.8658 67.6611Z" fill="#595959"/>
<path d="M74.1621 79.1988L92.5273 87.1663L90.6313 67.8313L72.2661 59.8638L74.1621 79.1988Z" stroke="white" stroke-opacity="0.5" stroke-width="0.5" stroke-linejoin="bevel"/>
</g>
<g style="mix-blend-mode:overlay">
<path d="M107.804 55.9523L90.8659 67.6611L71.9759 59.4655L88.9141 47.7566L107.804 55.9523Z" fill="#D2D2D2"/>
<path d="M107.291 56.0026L90.8379 67.3764L72.4881 59.4152L88.9419 48.0404L107.291 56.0026Z" stroke="white" stroke-opacity="0.5" stroke-width="0.5" stroke-linejoin="bevel"/>
</g>
<path d="M17.9141 25.7566L0.975885 37.4655L2.92766 57.37L21.8176 65.5657L38.7558 53.8568L36.8041 33.9523L17.9141 25.7566Z" fill="#219653"/>
<path d="M36.3351 34.2936L38.2294 53.6121L21.7617 64.9952L3.39649 57.0277L1.50218 37.7092L17.9699 26.3261L36.3351 34.2936Z" stroke="url(#paint8_linear_1156_672)" stroke-opacity="0.5" stroke-linejoin="bevel" style="mix-blend-mode:hard-light"/>
<g style="mix-blend-mode:overlay">
<path d="M19.8658 45.6611L36.804 33.9523L38.7558 53.8568L21.8176 65.5657L19.8658 45.6611Z" fill="#8C8C8C"/>
<path d="M38.4926 53.7344L22.0249 65.1175L20.1289 45.7825L36.5967 34.3994L38.4926 53.7344Z" stroke="white" stroke-opacity="0.5" stroke-width="0.5" stroke-linejoin="bevel"/>
</g>
<g style="mix-blend-mode:overlay">
<path d="M19.8658 45.6611L0.975871 37.4655L2.92764 57.37L21.8176 65.5657L19.8658 45.6611Z" fill="#595959"/>
<path d="M3.16206 57.1988L21.5273 65.1663L19.6313 45.8313L1.26613 37.8638L3.16206 57.1988Z" stroke="white" stroke-opacity="0.5" stroke-width="0.5" stroke-linejoin="bevel"/>
</g>
<g style="mix-blend-mode:overlay">
<path d="M36.8041 33.9523L19.8659 45.6611L0.975885 37.4655L17.9141 25.7566L36.8041 33.9523Z" fill="#D2D2D2"/>
<path d="M36.2909 34.0026L19.8379 45.3764L1.48808 37.4152L17.9419 26.0404L36.2909 34.0026Z" stroke="white" stroke-opacity="0.5" stroke-width="0.5" stroke-linejoin="bevel"/>
</g>
<defs>
<linearGradient id="paint0_linear_1156_672" x1="52.9141" y1="1.75659" x2="56.8176" y2="41.5657" gradientUnits="userSpaceOnUse">
<stop stop-opacity="0.71"/>
<stop offset="1"/>
</linearGradient>
<linearGradient id="paint1_linear_1156_672" x1="74.9141" y1="16.7566" x2="78.8176" y2="56.5657" gradientUnits="userSpaceOnUse">
<stop stop-opacity="0.71"/>
<stop offset="1"/>
</linearGradient>
<linearGradient id="paint2_linear_1156_672" x1="88.9141" y1="17.7566" x2="92.8176" y2="57.5657" gradientUnits="userSpaceOnUse">
<stop stop-opacity="0.71"/>
<stop offset="1"/>
</linearGradient>
<linearGradient id="paint3_linear_1156_672" x1="33.9141" y1="17.7566" x2="37.8176" y2="57.5657" gradientUnits="userSpaceOnUse">
<stop stop-opacity="0.71"/>
<stop offset="1"/>
</linearGradient>
<linearGradient id="paint4_linear_1156_672" x1="52.9141" y1="33.7566" x2="56.8176" y2="73.5657" gradientUnits="userSpaceOnUse">
<stop stop-opacity="0.71"/>
<stop offset="1"/>
</linearGradient>
<linearGradient id="paint5_linear_1156_672" x1="70.752" y1="34.666" x2="74.6556" y2="74.4751" gradientUnits="userSpaceOnUse">
<stop stop-opacity="0.71"/>
<stop offset="1"/>
</linearGradient>
<linearGradient id="paint6_linear_1156_672" x1="102.914" y1="22.7566" x2="106.818" y2="62.5657" gradientUnits="userSpaceOnUse">
<stop stop-opacity="0.71"/>
<stop offset="1"/>
</linearGradient>
<linearGradient id="paint7_linear_1156_672" x1="88.9141" y1="47.7566" x2="92.8176" y2="87.5657" gradientUnits="userSpaceOnUse">
<stop stop-opacity="0.71"/>
<stop offset="1"/>
</linearGradient>
<linearGradient id="paint8_linear_1156_672" x1="17.9141" y1="25.7566" x2="21.8176" y2="65.5657" gradientUnits="userSpaceOnUse">
<stop stop-opacity="0.71"/>
<stop offset="1"/>
</linearGradient>
</defs>
</svg>
